<?xml version="1.0" encoding="UTF-8"?>
<svg version="1.1" xmlns="http://www.w3.org/2000/svg" width="100" height="100">
<path d="M0 0 C29.04 0 58.08 0 88 0 C88 22.77 88 45.54 88 69 C58.96 69 29.92 69 0 69 C0 46.23 0 23.46 0 0 Z " fill="#0074FE" transform="translate(6,17)"/>
<path d="M0 0 C28.38 0 56.76 0 86 0 C82.71843426 4.10195718 79.73022686 6.97445206 75.625 10.0625 C70.53962186 13.96777522 65.59397958 17.9864025 60.75 22.1875 C55.27226684 26.93461372 49.70717811 31.5289388 44 36 C40.51490069 34.45555924 37.85677663 32.37524647 34.9375 29.9375 C33.96425781 29.12925781 32.99101563 28.32101563 31.98828125 27.48828125 C31.00214844 26.66714844 30.01601563 25.84601562 29 25 C27.20951061 23.54022149 25.41786157 22.08186408 23.625 20.625 C19.43530699 17.19378589 15.2694315 13.73565159 11.125 10.25 C10.58955566 9.80221191 10.05411133 9.35442383 9.50244141 8.89306641 C6.1435388 6.05658954 3.126967 3.126967 0 0 Z " fill="#4FACFC" transform="translate(7,17)"/>
<path d="M0 0 C5.13539352 3.85154514 10.06175339 7.66919022 14.875 11.875 C19.68337584 16.0365264 24.54521931 20.099175 29.53515625 24.04296875 C34.06716564 27.64128365 38.52819085 31.32733545 43 35 C46.89994577 33.30685281 50.07328893 30.75187197 53.375 28.125 C53.98641846 27.6417627 54.59783691 27.15852539 55.2277832 26.66064453 C60.82323795 22.20517692 66.24287321 17.55672402 71.65234375 12.87890625 C84.60020908 1.69989546 84.60020908 1.69989546 88 0 C88 22.77 88 45.54 88 69 C58.96 69 29.92 69 0 69 C0 46.23 0 23.46 0 0 Z M1 6 C1 25.47 1 44.94 1 65 C29.38 65 57.76 65 87 65 C87 45.53 87 26.06 87 6 C83.46802019 7.7659899 81.06472961 9.44090906 78.0625 11.9375 C77.09054688 12.74316406 76.11859375 13.54882812 75.1171875 14.37890625 C72.49774194 16.57444785 69.89478316 18.78894065 67.29467773 21.00732422 C65.11780611 22.85979799 62.93033659 24.69942363 60.73974609 26.53564453 C59.53510842 27.5495958 58.33521129 28.5691959 57.13916016 29.59326172 C55.27385854 31.18449384 53.389655 32.75031859 51.5 34.3125 C50.63701294 35.06055908 50.63701294 35.06055908 49.7565918 35.82373047 C48.09375 37.17578125 48.09375 37.17578125 45 39 C40.82005393 38.28147414 38.32850968 35.73647034 35.3125 32.875 C31.24786903 29.11012058 27.07317295 25.61022893 22.72265625 22.18359375 C18.90482656 19.12166147 15.18439814 15.94906257 11.46557617 12.76806641 C6.79676961 8.09820165 6.79676961 8.09820165 1 6 Z " fill="#0154B6" transform="translate(6,17)"/>
<path d="M0 0 C29.04 0 58.08 0 88 0 C88 0.99 88 1.98 88 3 C58.96 3 29.92 3 0 3 C0 2.01 0 1.02 0 0 Z " fill="#000000" transform="translate(6,83)"/>
</svg>
