<?xml version="1.0" encoding="UTF-8"?>
<svg version="1.1" xmlns="http://www.w3.org/2000/svg" width="100" height="100">
<path d="M0 0 C0.928125 0.61875 0.928125 0.61875 1.875 1.25 C2.555625 1.6625 3.23625 2.075 3.9375 2.5 C11.25126094 7.37584063 16.69207996 14.7139589 18.875 23.25 C19.86997548 32.49097448 20.17929143 42.29356286 14.875 50.25 C14.4625 50.930625 14.05 51.61125 13.625 52.3125 C8.42599337 60.11100995 0.99402416 65.20524538 -8.125 67.25 C-20.34043014 68.20008901 -30.26585868 67.37404064 -39.98046875 59.34375 C-47.12998428 52.36353083 -51.30847972 44.81161401 -51.50537109 34.77880859 C-51.47323951 20.77235927 -51.47323951 20.77235927 -47.125 14.25 C-46.7125 13.569375 -46.3 12.88875 -45.875 12.1875 C-36.49418961 -1.88371559 -15.3537909 -8.63650738 0 0 Z " fill="#47617F" transform="translate(66.125,17.75)"/>
<path d="M0 0 C0.928125 0.61875 0.928125 0.61875 1.875 1.25 C2.555625 1.6625 3.23625 2.075 3.9375 2.5 C11.25126094 7.37584063 16.69207996 14.7139589 18.875 23.25 C19.86997548 32.49097448 20.17929143 42.29356286 14.875 50.25 C14.4625 50.930625 14.05 51.61125 13.625 52.3125 C8.42599337 60.11100995 0.99402416 65.20524538 -8.125 67.25 C-20.34043014 68.20008901 -30.26585868 67.37404064 -39.98046875 59.34375 C-47.12998428 52.36353083 -51.30847972 44.81161401 -51.50537109 34.77880859 C-51.47323951 20.77235927 -51.47323951 20.77235927 -47.125 14.25 C-46.7125 13.569375 -46.3 12.88875 -45.875 12.1875 C-36.49418961 -1.88371559 -15.3537909 -8.63650738 0 0 Z M-33.125 8.25 C-34.48625 9.0853125 -34.48625 9.0853125 -35.875 9.9375 C-43.09549492 17.35856423 -45.51547589 25.20523595 -45.40625 35.3359375 C-44.68893026 42.76816707 -41.4126102 49.08256276 -36.125 54.25 C-31.31404582 57.98508679 -27.30302027 59.95106354 -21.125 60.25 C-19.50658203 60.3428125 -19.50658203 60.3428125 -17.85546875 60.4375 C-10.39591386 60.69171273 -5.44978694 60.29786364 0.875 56.25 C0.875 55.59 0.875 54.93 0.875 54.25 C2.855 53.755 2.855 53.755 4.875 53.25 C4.875 52.26 4.875 51.27 4.875 50.25 C5.48859375 50.01023438 6.1021875 49.77046875 6.734375 49.5234375 C10.80267458 47.10324468 11.72193745 42.63869727 12.875 38.25 C14.09913531 28.92208891 12.31692017 20.52029535 6.625 12.9375 C0.10966337 6.5702392 -7.16303364 3.00536136 -16.375 2.8125 C-23.03399556 2.91132071 -27.58228571 4.67640789 -33.125 8.25 Z " fill="#628CB8" transform="translate(66.125,17.75)"/>
<path d="M0 0 C5.875 1.875 5.875 1.875 7 3 C9.43212772 3.15423249 11.81635567 3.23166746 14.25 3.25 C14.91902344 3.270625 15.58804688 3.29125 16.27734375 3.3125 C20.81539417 3.34816248 23.24678658 2.42228667 27 0 C27.99 0.33 28.98 0.66 30 1 C30.19916016 2.04800781 30.19916016 2.04800781 30.40234375 3.1171875 C30.57894531 4.02726562 30.75554687 4.93734375 30.9375 5.875 C31.11152344 6.77992187 31.28554687 7.68484375 31.46484375 8.6171875 C31.89963701 10.99956317 31.89963701 10.99956317 33 13 C33.22612241 18.00418731 32.76320879 21.14593303 29.375 24.9375 C25.79018885 27.12821793 23.06477926 28.10574856 19 29 C19.49113281 29.36738281 19.98226562 29.73476563 20.48828125 30.11328125 C22.64766233 32.80832276 22.29719058 34.78709215 22.1875 38.1875 C22.16042969 39.27417969 22.13335937 40.36085937 22.10546875 41.48046875 C22.07066406 42.31191406 22.03585938 43.14335938 22 44 C19.07924603 44.83830296 16.47335217 45.13527361 13.4375 45.125 C12.67308594 45.12757812 11.90867187 45.13015625 11.12109375 45.1328125 C9 45 9 45 6 44 C6 41.69 6 39.38 6 37 C4.9275 36.95875 3.855 36.9175 2.75 36.875 C-1 36 -1 36 -3.4375 32.9375 C-3.953125 31.968125 -4.46875 30.99875 -5 30 C-4.01 30 -3.02 30 -2 30 C-1.54625 30.474375 -1.0925 30.94875 -0.625 31.4375 C1.46366683 33.44583349 3.1783448 33.61869524 6 34 C6.309375 33.360625 6.61875 32.72125 6.9375 32.0625 C8 30 8 30 9 29 C8.39671875 28.82984375 7.7934375 28.6596875 7.171875 28.484375 C-1.58084838 25.83032339 -1.58084838 25.83032339 -4 22 C-4.78259525 18.98454559 -5.31505919 16.1104935 -5 13 C-3.62890625 11.22265625 -3.62890625 11.22265625 -2 10 C-1.34 10 -0.68 10 0 10 C-0.66 9.34 -1.32 8.68 -2 8 C-1.42307692 1.42307692 -1.42307692 1.42307692 0 0 Z " fill="#EBE9D6" transform="translate(36,33)"/>
<path d="M0 0 C0.928125 0.61875 0.928125 0.61875 1.875 1.25 C2.555625 1.6625 3.23625 2.075 3.9375 2.5 C11.25126094 7.37584063 16.69207996 14.7139589 18.875 23.25 C19.86997548 32.49097448 20.17929143 42.29356286 14.875 50.25 C14.4625 50.930625 14.05 51.61125 13.625 52.3125 C8.42599337 60.11100995 0.99402416 65.20524538 -8.125 67.25 C-20.34043014 68.20008901 -30.26585868 67.37404064 -39.98046875 59.34375 C-47.12998428 52.36353083 -51.30847972 44.81161401 -51.50537109 34.77880859 C-51.47323951 20.77235927 -51.47323951 20.77235927 -47.125 14.25 C-46.7125 13.569375 -46.3 12.88875 -45.875 12.1875 C-36.49418961 -1.88371559 -15.3537909 -8.63650738 0 0 Z M-41.84765625 11.35546875 C-47.84569176 19.91777497 -50.49557681 27.70308509 -49.125 38.25 C-46.6088582 47.28574477 -42.32872691 54.87680397 -34.37109375 60.03515625 C-24.99646606 65.31540594 -17.16544146 66.61485879 -6.5625 64.1875 C3.96512577 60.9905515 9.88532614 53.71552609 14.90625 44.3203125 C18.21211971 36.94332546 18.01144212 28.51019823 15.25 21 C11.25099704 12.27490264 5.38039114 4.83460068 -3.73046875 1.21484375 C-17.92486589 -3.0895221 -32.09815497 -0.56058837 -41.84765625 11.35546875 Z " fill="#20232E" transform="translate(66.125,17.75)"/>
<path d="M0 0 C1.61263811 2.68773019 2.02136903 4.2991664 2.25 7.5 C2.66991148 11.26635706 2.66991148 11.26635706 6.0625 13.4375 C7.031875 13.953125 8.00125 14.46875 9 15 C8.01 15.66 7.02 16.32 6 17 C3.10288391 15.70129279 1.03300738 14.45421057 -1 12 C-1.58203125 9.84375 -1.58203125 9.84375 -1.8125 7.5 C-1.90144531 6.7265625 -1.99039062 5.953125 -2.08203125 5.15625 C-2 3 -2 3 0 0 Z " fill="#A4A49B" transform="translate(33,43)"/>
<path d="M0 0 C1.61949011 2.57213134 2.04408751 3.67669159 1.625 6.75 C1.41875 7.4925 1.2125 8.235 1 9 C0.01 9 -0.98 9 -2 9 C-2.25 3.375 -2.25 3.375 0 0 Z " fill="#C7C6B8" transform="translate(33,43)"/>
<path d="M0 0 C1.98 0.495 1.98 0.495 4 1 C2.35 2.32 0.7 3.64 -1 5 C-0.67 3.35 -0.34 1.7 0 0 Z " fill="#455F7E" transform="translate(29,29)"/>
</svg>
