<?xml version="1.0" encoding="UTF-8"?>
<svg version="1.1" xmlns="http://www.w3.org/2000/svg" width="96" height="96">
<path d="M0 0 C1.37093536 -0.00337114 2.7418678 -0.00822625 4.11279297 -0.01449585 C6.98108474 -0.02185344 9.84859609 -0.0111996 12.71679688 0.01220703 C16.38583493 0.04069651 20.05304436 0.02428622 23.72201538 -0.00565529 C26.55149002 -0.02375983 29.38053406 -0.01795631 32.21002197 -0.00501633 C34.21798903 -0.00007872 36.2259731 -0.01521214 38.23388672 -0.03067017 C43.19441106 0.03316371 46.98646515 0.09086679 51.45068359 2.33837891 C54.23332606 7.86552322 53.83600436 13.44157141 53.7890625 19.5390625 C53.79243364 20.90999786 53.79728875 22.2809303 53.80355835 23.65185547 C53.81091594 26.52014724 53.8002621 29.38765859 53.77685547 32.25585938 C53.74836599 35.92489743 53.76477628 39.59210686 53.79471779 43.26107788 C53.81282233 46.09055252 53.80701881 48.91959656 53.79407883 51.74908447 C53.78914122 53.75705153 53.80427464 55.7650356 53.81973267 57.77294922 C53.75589879 62.73347356 53.69819571 66.52552765 51.45068359 70.98974609 C45.92353928 73.77238856 40.34749109 73.37506686 34.25 73.328125 C32.87906464 73.33149614 31.5081322 73.33635125 30.13720703 73.34262085 C27.26891526 73.34997844 24.40140391 73.3393246 21.53320312 73.31591797 C17.86416507 73.28742849 14.19695564 73.30383878 10.52798462 73.33378029 C7.69850998 73.35188483 4.86946594 73.34608131 2.03997803 73.33314133 C0.03201097 73.32820372 -1.9759731 73.34333714 -3.98388672 73.35879517 C-8.94441106 73.29496129 -12.73646515 73.23725821 -17.20068359 70.98974609 C-19.98332606 65.46260178 -19.58600436 59.88655359 -19.5390625 53.7890625 C-19.54243364 52.41812714 -19.54728875 51.0471947 -19.55355835 49.67626953 C-19.56091594 46.80797776 -19.5502621 43.94046641 -19.52685547 41.07226562 C-19.49836599 37.40322757 -19.51477628 33.73601814 -19.54471779 30.06704712 C-19.56282233 27.23757248 -19.55701881 24.40852844 -19.54407883 21.57904053 C-19.53914122 19.57107347 -19.55427464 17.5630894 -19.56973267 15.55517578 C-19.50589879 10.59465144 -19.44819571 6.80259735 -17.20068359 2.33837891 C-11.67353928 -0.44426356 -6.09749109 -0.04694186 0 0 Z " fill="#0077D3" transform="translate(30.875,11.3359375)"/>
<path d="M0 0 C3.3 0 6.6 0 10 0 C10.33 0.99 10.66 1.98 11 3 C11.495 2.505 11.99 2.01 12.5 1.5 C15.95971396 -0.57582838 19.11047742 -0.55897331 23 0 C26.64759389 1.4921975 29.01556095 3.60483402 31.17089844 6.92236328 C33.04257771 11.61258431 32.39563451 16.91222395 32.25 21.875 C32.23195312 23.0403125 32.21390625 24.205625 32.1953125 25.40625 C32.1483382 28.27168249 32.08266293 31.13541168 32 34 C28.7 34 25.4 34 22 34 C21.95101562 32.43507812 21.90203125 30.87015625 21.8515625 29.2578125 C21.77654271 27.21352322 21.70099455 25.16925328 21.625 23.125 C21.5940625 22.09246094 21.563125 21.05992188 21.53125 19.99609375 C21.49257813 19.00996094 21.45390625 18.02382813 21.4140625 17.0078125 C21.36693115 15.64100342 21.36693115 15.64100342 21.31884766 14.24658203 C21.20117489 11.80068814 21.20117489 11.80068814 19 10 C15.41656024 9.83322718 15.41656024 9.83322718 12 10 C10.76939579 12.46120841 10.7942277 14.25776866 10.68359375 17.0078125 C10.64169922 17.99394531 10.59980469 18.98007812 10.55664062 19.99609375 C10.51732422 21.02863281 10.47800781 22.06117187 10.4375 23.125 C10.39431641 24.16527344 10.35113281 25.20554687 10.30664062 26.27734375 C10.20037232 28.8513983 10.09966473 31.42568131 10 34 C6.7 34 3.4 34 0 34 C0 22.78 0 11.56 0 0 Z " fill="#FCFDFE" transform="translate(40,38)"/>
<path d="M0 0 C3.3 0 6.6 0 10 0 C10 11.22 10 22.44 10 34 C6.7 34 3.4 34 0 34 C0 22.78 0 11.56 0 0 Z " fill="#FFFFFF" transform="translate(24,38)"/>
<path d="M0 0 C2 2 2 2 2.125 5.125 C2.08375 6.07375 2.0425 7.0225 2 8 C5.5219721 8.08004482 8.61981469 8.04005702 12 7 C11.01 8.485 11.01 8.485 10 10 C10.99 10.33 11.98 10.66 13 11 C13 23.54 13 36.08 13 49 C8.38 49 3.76 49 -1 49 C-1 36.46 -1 23.92 -1 11 C0.32 11 1.64 11 3 11 C2.01 10.34 1.02 9.68 0 9 C-0.77019559 6.30981684 -0.82103589 3.81868476 -1 1 C-0.67 0.67 -0.34 0.34 0 0 Z M1 13 C1 24.22 1 35.44 1 47 C4.3 47 7.6 47 11 47 C11 35.78 11 24.56 11 13 C7.7 13 4.4 13 1 13 Z " fill="#016FC4" transform="translate(23,25)"/>
<path d="M0 0 C4.62 0 9.24 0 14 0 C14 0.66 14 1.32 14 2 C14.99 2.33 15.98 2.66 17 3 C15.35 4.32 13.7 5.64 12 7 C12 5.35 12 3.7 12 2 C8.7 2 5.4 2 2 2 C2 13.22 2 24.44 2 36 C5.3 36 8.6 36 12 36 C12 28.74 12 21.48 12 14 C12.66 13.67 13.32 13.34 14 13 C14 21.25 14 29.5 14 38 C9.38 38 4.76 38 0 38 C0 25.46 0 12.92 0 0 Z " fill="#016FC3" transform="translate(38,36)"/>
<path d="M0 0 C5.48465569 -0.36564371 5.48465569 -0.36564371 7.6809082 1.19262695 C9.44568103 3.61065643 9.34454396 5.13129834 9.29296875 8.10546875 C9.28330078 9.08837891 9.27363281 10.07128906 9.26367188 11.08398438 C9.23853516 12.10814453 9.21339844 13.13230469 9.1875 14.1875 C9.17396484 15.22326172 9.16042969 16.25902344 9.14648438 17.32617188 C9.11111805 19.88433612 9.05731096 22.44223329 9 25 C12.3 25 15.6 25 19 25 C19 16.75 19 8.5 19 0 C19.66 0.33 20.32 0.66 21 1 C21 9.58 21 18.16 21 27 C16.38 27 11.76 27 7 27 C6.67 19.08 6.34 11.16 6 3 C4.02 2.34 2.04 1.68 0 1 C0 0.67 0 0.34 0 0 Z " fill="#026FC4" transform="translate(53,47)"/>
<path d="M0 0 C1.32278481 5.41139241 1.32278481 5.41139241 -0.0625 7.9375 C-2.91093248 9.49954362 -4.93504903 8.74921024 -8 8 C-9.32278481 2.58860759 -9.32278481 2.58860759 -7.9375 0.0625 C-5.08906752 -1.49954362 -3.06495097 -0.74921024 0 0 Z " fill="#F3F8FC" transform="translate(33,25)"/>
<path d="M0 0 C5.10477099 -0.520895 8.79747008 -0.60263447 13.0625 2.5 C14.031875 3.325 15.00125 4.15 16 5 C15.67 6.32 15.34 7.64 15 9 C14.566875 8.21625 14.13375 7.4325 13.6875 6.625 C9.7194866 2.74926598 5.36734195 2.62002054 0 2 C0 1.34 0 0.68 0 0 Z " fill="#0070C6" transform="translate(55,36)"/>
<path d="M0 0 C5.75 0.75 5.75 0.75 8 3 C7.625 5.125 7.625 5.125 7 7 C6.401875 6.21625 5.80375 5.4325 5.1875 4.625 C3.08914751 1.85425677 3.08914751 1.85425677 0 0 Z " fill="#1B7DC8" transform="translate(63,38)"/>
</svg>
