<?xml version="1.0" encoding="UTF-8"?>
<svg version="1.1" xmlns="http://www.w3.org/2000/svg" width="96" height="96">
<path d="M0 0 C8.80288754 6.34043826 15.4186507 14.72648904 17.58203125 25.4921875 C18.92007691 37.90936834 17.85729499 48.88109459 10.39453125 59.2421875 C3.58210875 67.3274193 -4.72289951 73.55522767 -15.48876953 74.71533203 C-28.40007937 75.61089799 -39.16843729 74.04490094 -49.3515625 65.46484375 C-57.86959925 57.33325857 -62.42046403 48.68416257 -62.88867188 36.85693359 C-63.04371176 24.34263074 -60.22647828 14.71931927 -51.41796875 5.4921875 C-37.63784493 -7.66275112 -16.31305228 -10.17259803 0 0 Z " fill="#29B6F6" transform="translate(70.41796875,13.5078125)"/>
<path d="M0 0 C-0.88110389 7.44674899 -2.15949057 14.79476284 -3.52905273 22.16552734 C-3.94009339 24.38902879 -4.34015343 26.61434768 -4.74023438 28.83984375 C-5.00192981 30.25533317 -5.26427602 31.67070247 -5.52734375 33.0859375 C-5.76187256 34.3651709 -5.99640137 35.6444043 -6.23803711 36.96240234 C-7 40 -7 40 -9 42 C-13.2241523 41.60182171 -15.3321092 39.02696502 -18.21875 36.1796875 C-19.92685857 34.78001 -19.92685857 34.78001 -22.015625 35.19140625 C-24.95596296 36.38953609 -27.41375844 38.17787526 -30 40 C-30.81381795 38.06305322 -31.62600916 36.12542289 -32.4375 34.1875 C-32.88996094 33.10855469 -33.34242187 32.02960937 -33.80859375 30.91796875 C-34.60375013 28.9704874 -35.33479648 26.99561057 -36 25 C-38.51640687 24.08131178 -41.04244437 23.53849114 -43.65234375 22.94140625 C-46.54928414 21.77973797 -46.78424693 20.76579476 -48 18 C-40.1567301 14.74388574 -32.31113125 11.49352032 -24.4606781 8.25476074 C-20.92973181 6.7979142 -17.4013804 5.33504334 -13.875 3.8671875 C-12.56274618 3.327526 -11.2502765 2.78838878 -9.9375 2.25 C-8.85339844 1.80140625 -7.76929688 1.3528125 -6.65234375 0.890625 C-4 0 -4 0 0 0 Z " fill="#FAFDFE" transform="translate(68,28)"/>
<path d="M0 0 C-1.62675331 4.3943466 -4.96857842 6.96873498 -8.375 10 C-9.52930521 11.04093595 -10.68296579 12.08258722 -11.8359375 13.125 C-12.37959961 13.61484375 -12.92326172 14.1046875 -13.48339844 14.609375 C-15.38111087 16.34945388 -17.20187235 18.15758349 -19 20 C-17.02 21.65 -15.04 23.3 -13 25 C-15.76571532 27.97058312 -18.49721396 29.97268271 -22 32 C-22.81604999 30.0848421 -23.62770632 28.16781166 -24.4375 26.25 C-24.88996094 25.18265625 -25.34242187 24.1153125 -25.80859375 23.015625 C-26.7444141 20.64692563 -27.42131239 18.46348943 -28 16 C-12.85997268 6.49521858 -12.85997268 6.49521858 -6.125 2.375 C-5.36445312 1.90835938 -4.60390625 1.44171875 -3.8203125 0.9609375 C-2 0 -2 0 0 0 Z " fill="#CFD9DD" transform="translate(60,36)"/>
<path d="M0 0 C3.56311466 1.78155733 5.35645475 3.16763009 8 6 C3.545 8.97 3.545 8.97 -1 12 C-0.67 8.04 -0.34 4.08 0 0 Z " fill="#A6C1CE" transform="translate(39,56)"/>
</svg>
